<svg xmlns="http://www.w3.org/2000/svg" width="244.821" height="33.6" viewBox="0 0 244.821 33.6"><g transform="translate(-21.9 -263.454)"><path d="M125.7,299.617V277.8h6.37v7.328l6.412-7.328H146.6l-7.744,8.244,8.993,13.573h-8.286l-5.538-8.7-1.957,2v6.7Z" transform="translate(-61.53 -8.171)" fill="#c4c4c4"/><path d="M355.1,299.617V277.8h18.653v4.913H361.429v3.164h10.617v5H361.429v3.414h12.907v5.329Z" transform="translate(-197.474 -8.171)" fill="#c4c4c4"/><path d="M456.1,299.617V277.8h6.579v16.113h9.951v5.7Z" transform="translate(-257.288 -8.171)" fill="#c4c4c4"/><rect width="6.579" height="21.817" transform="translate(216.425 269.629)" fill="#c4c4c4"/><path d="M520.8,299.617V277.8h6.245l6.912,11.908h.25V277.8h6.162v21.817h-6.037l-7.161-12.033H527v12.033Z" transform="translate(-296.173 -8.171)" fill="#c4c4c4"/><path d="M229.7,299.617V277.8h8.577l3.039,12.324h.167l3.039-12.324h8.827v21.817h-5.871V286.294h-.125l-3.622,13.324h-4.663l-3.5-13.324H235.4v13.324Z" transform="translate(-123.191 -8.171)" fill="#c4c4c4"/><path d="M292.4,299.617V277.8h8.577l3.039,12.324h.167l3.039-12.324h8.827v21.817h-5.871V286.294h-.125l-3.622,13.324h-4.663l-3.5-13.324H298.1v13.324Z" transform="translate(-160.362 -8.171)" fill="#c4c4c4"/><g transform="translate(245.561 269.043)"><path d="M591.99,284.515h-6.5c-1.207-4.039-8.077-4.289-8.077,3.248a7.517,7.517,0,0,0,1.374,4.58c1.707,2.04,6.5,1.915,7.078-1.166h-2.29v-4.122h8.66V298.8h-4.413v-2.332c-6.578,7.661-20.527-.958-15.78-13.573,3.372-9.077,18.153-8.744,19.944,1.624" transform="translate(-571.08 -276.393)" fill="#c4c4c4"/></g><rect width="5.413" height="3.373" transform="translate(95.354 264.758)" fill="#c4c4c4"/><rect width="5.371" height="3.373" transform="translate(87.646 264.758)" fill="#c4c4c4"/><g transform="translate(21.9 263.8)"><path d="M183.489,299.342c-15.156,0-15.072-22.942-.125-22.942,15.405,0,14.822,22.942.125,22.942m-.083-5.371c6.828,0,6.7-12.283.125-12.283-6.828.042-6.828,12.283-.125,12.283" transform="translate(-110.96 -271.154)" fill="#c4c4c4"/><path d="M404.5,299.617V277.8l11.242.042a11.258,11.258,0,0,1,5.5,1.041c4.039,2.207,4.08,9.243-.749,10.534,3.955,1.541,2.082,4.622,3.664,9.368l.291.874H418.49l-.333-.916c-1.124-3.373,0-6.662-2.831-6.62-2.082.042-1.457,0-4.622,0v7.536h-6.2Zm6.579-12.408h4.08c1.457,0,2.831-.458,2.831-2.207s-1.374-2.207-2.831-2.207h-4.08Z" transform="translate(-248.662 -271.971)" fill="#c4c4c4"/><path d="M54.5,280.579h0A15.6,15.6,0,0,1,49.838,291.7a15.877,15.877,0,0,1-11.158,4.58h0a15.637,15.637,0,0,1-15.7-15.7h0a15.637,15.637,0,0,1,15.7-15.7h0a15.877,15.877,0,0,1,11.158,4.58A15.677,15.677,0,0,1,54.5,280.579ZM21.9,297.4H55.584V263.8H21.9Z" transform="translate(-21.9 -264.146)" fill="#c4c4c4"/><path d="M51.016,284.131h-2l3.747-4.413h2.082Zm-3.664,11.283a5.326,5.326,0,0,1-4.205-2.082l-4.33-4.83v6.412h-4.83v-6.578h-4.08v-4.5h4.08V273.1h4.788l.083,10.867,3.914-4.247h5.121l-5.5,6.329.791.874a5.254,5.254,0,0,1,9.41,3.206,5.314,5.314,0,0,1-5.246,5.288m4.08-15.655L47.6,284.173H45.52l3.914-4.413Zm5.08,4.205h0a14.249,14.249,0,0,0-4.247-10.159,14.559,14.559,0,0,0-10.2-4.205h0A14.358,14.358,0,0,0,27.7,283.964h0a14.358,14.358,0,0,0,14.364,14.365h0a14.559,14.559,0,0,0,10.2-4.205,14.177,14.177,0,0,0,4.247-10.159Z" transform="translate(-25.285 -267.185)" fill="#c4c4c4"/><g opacity="0"><path d="M21.9,367.444h1.207V364.4l1.416-1.374,3.123,4.413H29.1l-3.789-5.2L29.02,358.7H27.479l-4.372,4.413V358.7H21.9Z" transform="translate(-21.9 -334.826)" fill="#c4c4c4"/><path d="M42.024,360.429c0-1.749.958-3.581,3.039-3.581,2.165,0,3.039,1.832,3.039,3.581s-.874,3.581-3.039,3.581c-2.082.042-3.039-1.832-3.039-3.581m-1.124,0c0,2.332,1.374,4.58,4.164,4.58s4.164-2.248,4.164-4.58c0-2.415-1.374-4.58-4.164-4.58s-4.164,2.165-4.164,4.58m2.5-5.038h1.124V354.1H43.4Zm2.29,0h1.041V354.1H45.688Z" transform="translate(-32.989 -332.142)" fill="#c4c4c4"/><path d="M64.9,367.444h1.124v-7.2l2.79,7.2h.958l2.748-7.2v7.2H73.6V358.7H72.02l-2.706,7.37-2.79-7.37H64.9Z" transform="translate(-46.996 -334.826)" fill="#c4c4c4"/><path d="M91,367.444h1.124v-7.2h.083l2.706,7.2h1l2.706-7.2v7.2h1.124V358.7H98.12l-2.706,7.37-2.79-7.37H91Z" transform="translate(-62.229 -334.826)" fill="#c4c4c4"/><path d="M117.2,367.444h6.079v-.958h-4.913v-3.039h4.5v-.958h-4.5v-2.748h4.913V358.7H117.2Z" transform="translate(-77.521 -334.826)" fill="#c4c4c4"/><path d="M135.8,367.5h1.124v-3.664H139.8c1.124,0,1.291.708,1.457,1.541.167.874,0,1.832.333,2.165h1.291a3.936,3.936,0,0,1-.541-2.415c-.083-.791-.25-1.582-1.291-1.749a2.2,2.2,0,0,0,1.541-2.248,2.317,2.317,0,0,0-2.623-2.332h-4.08v8.7Zm1.124-4.663V359.8H139.8c1.124,0,1.582.541,1.582,1.457,0,1.291-.958,1.582-2.082,1.582Z" transform="translate(-89.353 -334.885)" fill="#c4c4c4"/><path d="M156.3,367.444h5.787v-.958h-4.58V358.7H156.3Z" transform="translate(-101.487 -334.826)" fill="#c4c4c4"/><rect width="1.124" height="8.702" transform="translate(61.812 23.874)" fill="#c4c4c4"/><path d="M181.5,367.444h1.041V360.49h.083l4.58,6.953h1.249V358.7h-1.124v7.12h-.083l-4.538-7.12H181.5Z" transform="translate(-116.416 -334.826)" fill="#c4c4c4"/><path d="M209.4,367.21h.791v-4.58h-3.831v.958h2.79a2.664,2.664,0,0,1-2.79,2.873c-2,0-3.039-1.665-3.039-3.539,0-1.832.874-3.664,3.039-3.664a2.256,2.256,0,0,1,2.54,1.915h1.207c-.416-2.082-1.832-2.873-3.747-2.873-2.79,0-4.164,2.165-4.164,4.7a4.2,4.2,0,0,0,4.164,4.413,3.548,3.548,0,0,0,2.79-1.291Z" transform="translate(-128.681 -334.593)" fill="#c4c4c4"/><path d="M241.544,361.19a3.346,3.346,0,0,0-3.581-2.79c-2.706,0-4.164,2.082-4.164,4.58,0,2.54,1.374,4.58,4.08,4.58a3.582,3.582,0,0,0,3.747-3.539H240.42a2.439,2.439,0,0,1-2.5,2.54c-2.082,0-2.956-1.665-2.956-3.664,0-1.832.874-3.5,2.956-3.5a2.277,2.277,0,0,1,2.415,1.832h1.207Z" transform="translate(-147.395 -334.651)" fill="#c4c4c4"/><path d="M256.6,367.444h1.124v-4h4.663v4h1.083V358.7h-1.083v3.789h-4.663V358.7H256.6Z" transform="translate(-160.89 -334.826)" fill="#c4c4c4"/><path d="M278.3,367.444h6.079v-.958h-4.871v-3.039H284v-.958h-4.5v-2.748H284.3V358.7h-6Z" transform="translate(-173.733 -334.826)" fill="#c4c4c4"/><path d="M297,367.444h1.083v-7.2l2.748,7.2h.958l2.706-7.2h.083v7.2h1.041V358.7h-1.5l-2.831,7.37-2.706-7.37H297Z" transform="translate(-184.832 -334.826)" fill="#c4c4c4"/><rect width="1.207" height="8.702" transform="translate(122.888 23.874)" fill="#c4c4c4"/><path d="M336.62,361.106c-.083-1.915-1.457-2.706-3.206-2.706-1.582,0-3.206.708-3.206,2.54,0,1.582,1.457,2,2.79,2.332,1.457.25,2.79.5,2.79,1.665,0,1.291-1.124,1.582-2.248,1.582-1.291,0-2.5-.625-2.5-2.165H330c0,2.165,1.665,3.123,3.581,3.123,1.582,0,3.456-.708,3.456-2.623,0-1.665-1.457-2.165-2.79-2.5-1.457-.333-2.79-.5-2.79-1.5,0-1.207.958-1.541,1.915-1.541,1.207,0,2.082.541,2.165,1.749h1.083Z" transform="translate(-204.359 -334.651)" fill="#c4c4c4"/><path d="M357.461,361.19a3.293,3.293,0,0,0-3.581-2.79c-2.623,0-4.08,2.082-4.08,4.58,0,2.54,1.291,4.58,4,4.58a3.512,3.512,0,0,0,3.747-3.539H356.42a2.449,2.449,0,0,1-2.54,2.54c-2.082,0-2.956-1.665-2.956-3.664,0-1.832.874-3.5,2.956-3.5a2.366,2.366,0,0,1,2.5,1.832h1.083Z" transform="translate(-216.093 -334.651)" fill="#c4c4c4"/><path d="M372.5,367.444h1.166v-4h4.58v4h1.207V358.7h-1.207v3.789h-4.58V358.7H372.5Z" transform="translate(-229.527 -334.826)" fill="#c4c4c4"/><path d="M394.4,367.444h6.037v-.958h-4.955v-3.039h4.58v-.958h-4.58v-2.748H400.4V358.7h-6Z" transform="translate(-242.484 -334.826)" fill="#c4c4c4"/><path d="M421.6,367.444h1.124v-4h4v-.958h-4v-2.748h4.58V358.7h-5.7Z" transform="translate(-258.586 -334.826)" fill="#c4c4c4"/><path d="M438.9,359.8h.083l1.457,4.08h-3Zm-4,7.7h1.207l.958-2.54h3.664l.958,2.54h1.291l-3.373-8.7h-1.291Z" transform="translate(-266.497 -334.885)" fill="#c4c4c4"/><path d="M458.124,359.741h2.332c1.041,0,1.915.167,1.915,1.374,0,.874-.541,1.374-1.915,1.374h-2.332Zm-1.124,7.7h4.247a2.484,2.484,0,0,0,2.623-2.5,2.058,2.058,0,0,0-1.665-2.082v-.083a1.957,1.957,0,0,0,1.291-1.915,2.019,2.019,0,0,0-1.041-1.832,4.669,4.669,0,0,0-2.248-.333H457Zm1.124-4h2.706c.958,0,1.832.333,1.832,1.541a1.423,1.423,0,0,1-1.582,1.5h-2.956Z" transform="translate(-279.567 -334.826)" fill="#c4c4c4"/><path d="M477.7,367.5h1.124v-3.664H481.7c1.124,0,1.291.708,1.457,1.541.167.874,0,1.832.333,2.165h1.291a3.935,3.935,0,0,1-.541-2.415c-.083-.791-.25-1.582-1.291-1.749a2.2,2.2,0,0,0,1.541-2.248,2.317,2.317,0,0,0-2.623-2.332h-4.08v8.7Zm1.124-4.663V359.8H481.7c1.124,0,1.582.541,1.582,1.457,0,1.291-.958,1.582-2.082,1.582Z" transform="translate(-291.829 -334.885)" fill="#c4c4c4"/><rect width="1.124" height="8.702" transform="translate(194.451 23.874)" fill="#c4c4c4"/><path d="M506.5,367.444h1.124V364.4l1.457-1.374,3.206,4.413H513.7l-3.831-5.2,3.664-3.539h-1.416l-4.5,4.413V358.7H506.5Z" transform="translate(-309.727 -334.826)" fill="#c4c4c4"/><path d="M541.686,367.21h.708v-4.58h-3.831v.958h2.79a2.664,2.664,0,0,1-2.79,2.873c-1.915,0-3.039-1.665-3.039-3.539,0-1.832.874-3.664,3.039-3.664a2.256,2.256,0,0,1,2.54,1.915h1.207c-.333-2.082-1.832-2.873-3.747-2.873-2.79,0-4.164,2.165-4.164,4.7a4.176,4.176,0,0,0,4.164,4.413,3.548,3.548,0,0,0,2.79-1.291Z" transform="translate(-326.011 -334.593)" fill="#c4c4c4"/><path d="M558.2,367.444h1.124v-7.2h.083l2.706,7.2h.958l2.748-7.2v7.2H566.9V358.7H565.32l-2.706,7.37-2.79-7.37H558.2Z" transform="translate(-339.902 -334.826)" fill="#c4c4c4"/><path d="M585.507,359.741h2.332c.958,0,1.832.167,1.832,1.374,0,.874-.541,1.374-1.832,1.374h-2.332Zm-1.207,7.7h4.247a2.436,2.436,0,0,0,2.623-2.5,1.983,1.983,0,0,0-1.665-2.082v-.083a2.028,2.028,0,0,0,1.374-1.915,2.191,2.191,0,0,0-1.041-1.832,5.2,5.2,0,0,0-2.332-.333H584.3Zm1.207-4h2.623c.958,0,1.915.333,1.915,1.541,0,.958-.625,1.5-1.665,1.5h-2.873Z" transform="translate(-355.134 -334.826)" fill="#c4c4c4"/><path d="M605.1,367.444h1.124v-4h4.622v4h1.124V358.7h-1.124v3.789h-4.622V358.7H605.1Z" transform="translate(-367.274 -334.826)" fill="#c4c4c4"/><path d="M125.7,299.617V277.8h6.37v7.328l6.412-7.328H146.6l-7.744,8.244,8.993,13.573h-8.286l-5.538-8.7-1.957,2v6.7Z" transform="translate(-83.43 -271.971)" fill="#c4c4c4"/><path d="M355.1,299.617V277.8h18.653v4.913H361.429v3.164h10.617v5H361.429v3.414h12.907v5.329Z" transform="translate(-219.374 -271.971)" fill="#c4c4c4"/><path d="M456.1,299.617V277.8h6.579v16.113h9.951v5.7Z" transform="translate(-279.188 -271.971)" fill="#c4c4c4"/><rect width="6.579" height="21.817" transform="translate(194.525 5.829)" fill="#c4c4c4"/><path d="M520.8,299.617V277.8h6.245l6.912,11.908h.25V277.8h6.162v21.817h-6.037l-7.161-12.033H527v12.033Z" transform="translate(-318.073 -271.971)" fill="#c4c4c4"/><path d="M229.7,299.617V277.8h8.577l3.039,12.324h.167l3.039-12.324h8.827v21.817h-5.871V286.294h-.125l-3.622,13.324h-4.663l-3.5-13.324H235.4v13.324Z" transform="translate(-145.091 -271.971)" fill="#c4c4c4"/><path d="M292.4,299.617V277.8h8.577l3.039,12.324h.167l3.039-12.324h8.827v21.817h-5.871V286.294h-.125l-3.622,13.324h-4.663l-3.5-13.324H298.1v13.324Z" transform="translate(-182.262 -271.971)" fill="#c4c4c4"/><path d="M591.99,284.515h-6.5c-1.207-4.039-8.077-4.289-8.077,3.248a7.517,7.517,0,0,0,1.374,4.58c1.707,2.04,6.5,1.915,7.078-1.166h-2.29v-4.122h8.66V298.8h-4.413v-2.332c-6.578,7.661-20.527-.958-15.78-13.573,3.372-9.077,18.153-8.744,19.944,1.624" transform="translate(-347.419 -271.15)" fill="#c4c4c4"/><rect width="5.413" height="3.373" transform="translate(73.454 0.958)" fill="#c4c4c4"/><rect width="5.371" height="3.373" transform="translate(65.746 0.958)" fill="#c4c4c4"/><path d="M183.489,299.342c-15.156,0-15.072-22.942-.125-22.942,15.405,0,14.822,22.942.125,22.942m-.083-5.371c6.828,0,6.7-12.283.125-12.283-6.828.042-6.828,12.283-.125,12.283" transform="translate(-110.96 -271.154)" fill="#c4c4c4"/><path d="M404.5,299.617V277.8l11.242.042a11.258,11.258,0,0,1,5.5,1.041c4.039,2.207,4.08,9.243-.749,10.534,3.955,1.541,2.082,4.622,3.664,9.368l.291.874H418.49l-.333-.916c-1.124-3.373,0-6.662-2.831-6.62-2.082.042-1.457,0-4.622,0v7.536h-6.2Zm6.579-12.408h4.08c1.457,0,2.831-.458,2.831-2.207s-1.374-2.207-2.831-2.207h-4.08Z" transform="translate(-248.662 -271.971)" fill="#c4c4c4"/><path d="M54.5,280.579h0A15.6,15.6,0,0,1,49.838,291.7a15.877,15.877,0,0,1-11.158,4.58h0a15.637,15.637,0,0,1-15.7-15.7h0a15.637,15.637,0,0,1,15.7-15.7h0a15.877,15.877,0,0,1,11.158,4.58A15.677,15.677,0,0,1,54.5,280.579ZM21.9,297.4H55.584V263.8H21.9Z" transform="translate(-21.9 -264.146)" fill="#c4c4c4"/><path d="M51.016,284.131h-2l3.747-4.413h2.082Zm-3.664,11.283a5.326,5.326,0,0,1-4.205-2.082l-4.33-4.83v6.412h-4.83v-6.578h-4.08v-4.5h4.08V273.1h4.788l.083,10.867,3.914-4.247h5.121l-5.5,6.329.791.874a5.254,5.254,0,0,1,9.41,3.206,5.314,5.314,0,0,1-5.246,5.288m4.08-15.655L47.6,284.173H45.52l3.914-4.413Zm5.08,4.205h0a14.249,14.249,0,0,0-4.247-10.159,14.559,14.559,0,0,0-10.2-4.205h0A14.358,14.358,0,0,0,27.7,283.964h0a14.358,14.358,0,0,0,14.364,14.365h0a14.559,14.559,0,0,0,10.2-4.205,14.177,14.177,0,0,0,4.247-10.159Z" transform="translate(-25.285 -267.185)" fill="#c4c4c4"/></g></g></g></svg>