<svg xmlns="http://www.w3.org/2000/svg" viewBox="0 0 351.83 156.1"><defs><style>.cls-1{fill:#ffffff;stroke:#ffffff;}.cls-1,.cls-2{stroke-miterlimit:10;}.cls-2{fill:#f6892a;stroke:#f6892a;}.cls-3{fill:none;}.cls-4{isolation:isolate;}.cls-5{fill:#ffffff;}</style></defs><g id="Layer_2" data-name="Layer 2"><g id="Layer_1-2" data-name="Layer 1"><path class="cls-1" d="M124.31.5V31.09h27a13.1,13.1,0,0,1,13.12,13.12h0a13.1,13.1,0,0,1-13.12,13.13H95.56L169,124.26h42.41l-50.12-44h7.38a30.56,30.56,0,0,0,30.59-30.59V31.09A30.56,30.56,0,0,0,168.67.5Z"/><path class="cls-1" d="M351.33,30.65H247.42a10.19,10.19,0,0,0-10.2,10.2h0V84.46a10.18,10.18,0,0,0,10.2,10.19H351.33v29.61H236a31.76,31.76,0,0,1-31.78-31.78V32.28A31.76,31.76,0,0,1,236,.5h115.3V30.65Z"/><polygon class="cls-2" points="0.54 0.5 0.54 30.66 55.32 30.66 55.32 124.26 93.28 124.26 93.28 30.66 119.32 30.66 119.32 0.5 0.54 0.5"/><rect class="cls-3" x="0.54" y="135.38" width="350.79" height="20.72"/><g class="cls-4"><path class="cls-5" d="M25,135.71l-5.46,20.17H16.91L13,141.13a6.49,6.49,0,0,1-.32-2.06h0a13.38,13.38,0,0,1-.33,2.06L8.4,155.88H5.67L0,135.71H2.51l4,15.4a6.49,6.49,0,0,1,.32,2.06H7a10,10,0,0,1,.44-2.06l4.25-15.4h2.19l4,15.51c.11.54.22,1.19.33,1.84h0a8.83,8.83,0,0,1,.33-1.95l3.93-15.51H25Z"/><path class="cls-5" d="M28.7,137.77a1.07,1.07,0,0,1-1-.44,1.57,1.57,0,0,1,0-2.16,1.34,1.34,0,0,1,1-.44,1.07,1.07,0,0,1,1,.44,1.57,1.57,0,0,1,0,2.16A1.19,1.19,0,0,1,28.7,137.77Zm1.09,18H27.6V141.35h2.19Z"/><path class="cls-5" d="M45.61,155.77H43.43v-8.24c0-3-1.1-4.55-3.17-4.55a3.47,3.47,0,0,0-2.73,1.3,4.71,4.71,0,0,0-1.09,3.25v8.24H34.26V141.35h2.18v2.38h0A4.88,4.88,0,0,1,40.92,141a4.43,4.43,0,0,1,3.49,1.52,7.27,7.27,0,0,1,1.2,4.45Z"/><path class="cls-5" d="M61.43,155.77H59.25v-2.49h0a5.35,5.35,0,0,1-8.84.87,8.47,8.47,0,0,1-1.53-5.21,8.83,8.83,0,0,1,1.75-5.75A5.5,5.5,0,0,1,55.21,141a4.49,4.49,0,0,1,4.15,2.28h0v-8.79h2.18v21.26Zm-2.18-6.5V147.1a3.92,3.92,0,0,0-1.09-2.93A3.81,3.81,0,0,0,55.32,143a3.92,3.92,0,0,0-3.17,1.51,7,7,0,0,0-1.2,4.23,6.13,6.13,0,0,0,1.1,3.91,3.78,3.78,0,0,0,5.89,0A4,4,0,0,0,59.25,149.27Z"/><path class="cls-5" d="M71.69,156.1A6.2,6.2,0,0,1,66.78,154a7.7,7.7,0,0,1-1.86-5.32,8.2,8.2,0,0,1,1.86-5.64A6.5,6.5,0,0,1,71.9,141a6.08,6.08,0,0,1,4.8,2,7.84,7.84,0,0,1,1.75,5.53A8.27,8.27,0,0,1,76.6,154,6.09,6.09,0,0,1,71.69,156.1Zm.1-13a4.34,4.34,0,0,0-3.38,1.52,6,6,0,0,0-1.2,4.12,6.33,6.33,0,0,0,1.2,4,4.34,4.34,0,0,0,3.38,1.52,3.91,3.91,0,0,0,3.28-1.41,6.67,6.67,0,0,0,1.2-4.13,6.44,6.44,0,0,0-1.2-4.12A3.71,3.71,0,0,0,71.79,143.08Z"/><path class="cls-5" d="M99.29,141.46l-4.15,14.31H92.85L90,145.47a5.36,5.36,0,0,1-.22-1.3h0a3.72,3.72,0,0,1-.33,1.3l-3,10.3H84.23l-4.14-14.42h2.29l2.83,10.85c.11.32.11.75.22,1.3h.11a5.28,5.28,0,0,1,.22-1.3l3.16-10.74h2l2.84,10.84c.1.33.1.76.21,1.31h.11a8,8,0,0,1,.22-1.31l2.84-10.84Z"/><path class="cls-5" d="M101,155.23v-2.49a6.06,6.06,0,0,0,3.92,1.41c2,0,3-.65,3-2.06a2.15,2.15,0,0,0-.22-1c-.22-.22-.43-.54-.65-.76a4.4,4.4,0,0,0-1-.54,9.87,9.87,0,0,0-1.2-.54c-.65-.22-1.09-.55-1.63-.76a5.06,5.06,0,0,1-1.2-.87,2.25,2.25,0,0,1-.66-1.09,5.35,5.35,0,0,1-.22-1.41,2.9,2.9,0,0,1,.44-1.73,3.49,3.49,0,0,1,1.2-1.3,5.49,5.49,0,0,1,1.64-.76,6,6,0,0,1,2-.22,7.26,7.26,0,0,1,3.17.65v2.28a6.38,6.38,0,0,0-3.5-1.08,3.68,3.68,0,0,0-1.09.1,2.24,2.24,0,0,0-.87.44,2.42,2.42,0,0,0-.54.65,2,2,0,0,0-.22.87,3.09,3.09,0,0,0,.22,1,2.42,2.42,0,0,0,.54.65,6.59,6.59,0,0,0,.87.55c.33.21.77.32,1.2.54a10.67,10.67,0,0,1,1.64.76,4.76,4.76,0,0,1,1.2.86,2.44,2.44,0,0,1,.76,1.09,3.11,3.11,0,0,1,.33,1.52,3.35,3.35,0,0,1-.43,1.84,3.49,3.49,0,0,1-1.2,1.3,5.07,5.07,0,0,1-1.75.76,8.48,8.48,0,0,1-5.67-.65Z"/><path class="cls-5" d="M130.82,155.77h-2.18V153.5h0a4.65,4.65,0,0,1-4.25,2.6,4.2,4.2,0,0,1-3.17-1.08,4.09,4.09,0,0,1-1.2-3c0-2.71,1.53-4.23,4.58-4.67l4.15-.65c0-2.49-1-3.68-2.84-3.68a6.48,6.48,0,0,0-4.47,1.73v-2.39a8.54,8.54,0,0,1,4.69-1.3c3.27,0,4.8,1.74,4.8,5.32v9.43Zm-2.18-7.26-3.27.43a5.59,5.59,0,0,0-2.29.76,2.27,2.27,0,0,0-.77,2.06,2.16,2.16,0,0,0,.77,1.74,2.68,2.68,0,0,0,2,.65,3.75,3.75,0,0,0,2.73-1.2,4.16,4.16,0,0,0,1.09-3v-1.41Z"/><path class="cls-5" d="M146.32,155.77h-2.19v-8.24c0-3-1.09-4.55-3.16-4.55a3.47,3.47,0,0,0-2.73,1.3,4.71,4.71,0,0,0-1.09,3.25v8.24H135V141.35h2.18v2.38h0a4.88,4.88,0,0,1,4.47-2.71,4.43,4.43,0,0,1,3.5,1.52,7.27,7.27,0,0,1,1.2,4.45v8.78Z"/><path class="cls-5" d="M162.25,155.77h-2.19v-2.49h0a5.34,5.34,0,0,1-8.83.87,8.4,8.4,0,0,1-1.53-5.21,8.82,8.82,0,0,1,1.74-5.75A5.52,5.52,0,0,1,156,141a4.46,4.46,0,0,1,4.14,2.28h0v-8.79h2.19v21.26Zm-2.19-6.5V147.1a3.88,3.88,0,0,0-1.09-2.93,3.77,3.77,0,0,0-2.83-1.19,3.92,3.92,0,0,0-3.17,1.51,7,7,0,0,0-1.2,4.23,6.19,6.19,0,0,0,1.09,3.91,3.78,3.78,0,0,0,5.89,0A4.29,4.29,0,0,0,160.06,149.27Z"/><path class="cls-5" d="M174.47,155.77V135.6h5.34q10.16,0,10.15,9.76a10.11,10.11,0,0,1-2.84,7.49,10.24,10.24,0,0,1-7.53,2.82h-5.12Zm2.29-18v15.84h2.83a7.36,7.36,0,0,0,8-8.14c0-5.21-2.62-7.7-7.86-7.7Z"/><path class="cls-5" d="M199.13,156.1a6.2,6.2,0,0,1-4.91-2.06,7.7,7.7,0,0,1-1.86-5.32,8.2,8.2,0,0,1,1.86-5.64,6.5,6.5,0,0,1,5.12-2.06,6.08,6.08,0,0,1,4.8,2,7.84,7.84,0,0,1,1.75,5.53A8.27,8.27,0,0,1,204,154,5.93,5.93,0,0,1,199.13,156.1Zm.21-13A4.34,4.34,0,0,0,196,144.6a6,6,0,0,0-1.2,4.12,6.33,6.33,0,0,0,1.2,4,4.34,4.34,0,0,0,3.38,1.52,3.91,3.91,0,0,0,3.28-1.41,6.67,6.67,0,0,0,1.2-4.13,6.44,6.44,0,0,0-1.2-4.12A3.71,3.71,0,0,0,199.34,143.08Z"/><path class="cls-5" d="M215.27,156.1a6.22,6.22,0,0,1-4.91-2.06,7.7,7.7,0,0,1-1.85-5.32,8.2,8.2,0,0,1,1.85-5.64,6.54,6.54,0,0,1,5.13-2.06,6.08,6.08,0,0,1,4.8,2,7.84,7.84,0,0,1,1.75,5.53,8.28,8.28,0,0,1-1.86,5.53A6.06,6.06,0,0,1,215.27,156.1Zm.11-13A4.33,4.33,0,0,0,212,144.6a6,6,0,0,0-1.2,4.12,6.33,6.33,0,0,0,1.2,4,4.33,4.33,0,0,0,3.38,1.52,3.91,3.91,0,0,0,3.28-1.41,6.67,6.67,0,0,0,1.2-4.13,6.44,6.44,0,0,0-1.2-4.12A3.71,3.71,0,0,0,215.38,143.08Z"/><path class="cls-5" d="M232.73,143.73a2.66,2.66,0,0,0-1.64-.43,2.75,2.75,0,0,0-2.4,1.41,6.58,6.58,0,0,0-1,3.8v7.37h-2.18V141.46h2.18v2.93h0a5.23,5.23,0,0,1,1.42-2.39,3.28,3.28,0,0,1,2.18-.87,4,4,0,0,1,1.31.22v2.38Z"/><path class="cls-5" d="M242.11,155V152.2a3.89,3.89,0,0,0,1.1.75,6.41,6.41,0,0,0,1.31.55,6.52,6.52,0,0,0,1.41.32c.44,0,.88.11,1.31.11a4.73,4.73,0,0,0,3.06-.76,2.8,2.8,0,0,0,1-2.28,3,3,0,0,0-.33-1.41,3,3,0,0,0-1-1.08,15.87,15.87,0,0,0-1.42-1c-.54-.32-1.09-.65-1.74-1s-1.31-.76-1.86-1.09a8.48,8.48,0,0,1-1.53-1.19,4.77,4.77,0,0,1-1-1.52,5.16,5.16,0,0,1-.33-2,5.46,5.46,0,0,1,.55-2.39,5.53,5.53,0,0,1,1.53-1.63,6.58,6.58,0,0,1,2.18-1,9,9,0,0,1,2.4-.33,8.32,8.32,0,0,1,4.15.76v2.6a7,7,0,0,0-4.37-1.19,7.22,7.22,0,0,0-1.53.11,3.74,3.74,0,0,0-1.3.54,4.14,4.14,0,0,0-1,1,3.08,3.08,0,0,0-.32,1.41,2.36,2.36,0,0,0,.32,1.3,3.38,3.38,0,0,0,.77,1,3.78,3.78,0,0,0,1.31.86c.54.33,1.09.66,1.74,1s1.31.76,2,1.09a10,10,0,0,1,1.63,1.3,4.11,4.11,0,0,1,1.09,1.62,5.19,5.19,0,0,1,.44,2,5.73,5.73,0,0,1-.54,2.49,4.49,4.49,0,0,1-1.53,1.63,6.67,6.67,0,0,1-2.18,1,10.11,10.11,0,0,1-2.62.33,4,4,0,0,1-1.09-.11c-.44-.11-.88-.11-1.42-.22s-.88-.21-1.31-.32A3.58,3.58,0,0,1,242.11,155Z"/><path class="cls-5" d="M263,156.1A6.22,6.22,0,0,1,258,154a7.7,7.7,0,0,1-1.85-5.32,8.2,8.2,0,0,1,1.85-5.64,6.54,6.54,0,0,1,5.13-2.06,6.08,6.08,0,0,1,4.8,2,7.84,7.84,0,0,1,1.75,5.53,8.23,8.23,0,0,1-1.86,5.53A6.06,6.06,0,0,1,263,156.1Zm.22-13a4.33,4.33,0,0,0-3.38,1.52,6,6,0,0,0-1.2,4.12,6.33,6.33,0,0,0,1.2,4,4.33,4.33,0,0,0,3.38,1.52,3.91,3.91,0,0,0,3.28-1.41,6.67,6.67,0,0,0,1.2-4.13,6.44,6.44,0,0,0-1.2-4.12A3.71,3.71,0,0,0,263.17,143.08Z"/><path class="cls-5" d="M275.5,155.77h-2.18V134.51h2.18Z"/><path class="cls-5" d="M291.11,155.77h-2.19V153.5h0a4.43,4.43,0,0,1-4.25,2.6c-3.28,0-4.91-2.06-4.91-6.07v-8.57h2.18v8.24q0,4.56,3.27,4.56a3.33,3.33,0,0,0,2.62-1.2,5,5,0,0,0,1.09-3.25v-8.24h2.19Z"/><path class="cls-5" d="M301.91,155.67a4,4,0,0,1-2.08.43q-3.6,0-3.6-4.23v-8.46h-2.4v-1.95h2.4V138l2.19-.76v4.23h3.49v1.95h-3.49v8.13a3.43,3.43,0,0,0,.43,2.07,1.85,1.85,0,0,0,1.53.65,2.18,2.18,0,0,0,1.42-.44v1.85Z"/><path class="cls-5" d="M305.94,137.77a1.07,1.07,0,0,1-1-.44,1.57,1.57,0,0,1,0-2.16,1.34,1.34,0,0,1,1-.44,1.07,1.07,0,0,1,1,.44,2,2,0,0,1,.43,1.08,1.4,1.4,0,0,1-.43,1.08A1.07,1.07,0,0,1,305.94,137.77Zm1.1,18h-2.19V141.35H307Z"/><path class="cls-5" d="M317.18,156.1a6.22,6.22,0,0,1-4.91-2.06,7.7,7.7,0,0,1-1.85-5.32,8.2,8.2,0,0,1,1.85-5.64A6.54,6.54,0,0,1,317.4,141a6.09,6.09,0,0,1,4.8,2,7.84,7.84,0,0,1,1.75,5.53,8.28,8.28,0,0,1-1.86,5.53A6.06,6.06,0,0,1,317.18,156.1Zm.22-13A4.33,4.33,0,0,0,314,144.6a6,6,0,0,0-1.2,4.12,6.27,6.27,0,0,0,1.2,4,4.33,4.33,0,0,0,3.38,1.52,3.88,3.88,0,0,0,3.27-1.41,6.61,6.61,0,0,0,1.2-4.13,6.38,6.38,0,0,0-1.2-4.12A3.68,3.68,0,0,0,317.4,143.08Z"/><path class="cls-5" d="M339,155.77h-2.18v-8.24c0-3-1.09-4.55-3.16-4.55a3.46,3.46,0,0,0-2.73,1.3,4.71,4.71,0,0,0-1.09,3.25v8.24h-2.18V141.35h2.18v2.38h0a4.88,4.88,0,0,1,4.47-2.71,4.4,4.4,0,0,1,3.49,1.52A7.2,7.2,0,0,1,339,147v8.78Z"/><path class="cls-5" d="M342.28,155.23v-2.49a6.07,6.07,0,0,0,3.93,1.41c2,0,2.94-.65,2.94-2.06a2.15,2.15,0,0,0-.22-1c-.21-.22-.43-.54-.65-.76a4.57,4.57,0,0,0-1-.54,11.49,11.49,0,0,0-1.2-.54c-.66-.22-1.09-.55-1.64-.76a5.06,5.06,0,0,1-1.2-.87,2.16,2.16,0,0,1-.65-1.09,5.35,5.35,0,0,1-.22-1.41,3,3,0,0,1,.43-1.73,3.49,3.49,0,0,1,1.2-1.3,5.49,5.49,0,0,1,1.64-.76,10.77,10.77,0,0,1,2-.22,7.23,7.23,0,0,1,3.17.65v2.28A6.32,6.32,0,0,0,347.3,143a3.61,3.61,0,0,0-1.09.1,2.21,2.21,0,0,0-.88.44,2.62,2.62,0,0,0-.54.65,2,2,0,0,0-.22.87,3.09,3.09,0,0,0,.22,1,2.62,2.62,0,0,0,.54.65,6.14,6.14,0,0,0,.88.55,9.52,9.52,0,0,1,1.2.54,10.52,10.52,0,0,1,1.63.76,4.59,4.59,0,0,1,1.2.86,2.54,2.54,0,0,1,.77,1.09,3.23,3.23,0,0,1,.32,1.52,3.35,3.35,0,0,1-.43,1.84,3.49,3.49,0,0,1-1.2,1.3,5,5,0,0,1-1.75.76,6.31,6.31,0,0,1-2.07.22A6.82,6.82,0,0,1,342.28,155.23Z"/></g></g></g></svg>