<svg xmlns="http://www.w3.org/2000/svg" viewBox="0 0 253.05 113.55"><defs><style>.cls-1,.cls-3{fill:#9e9d9e;}.cls-1{stroke:#9e9d9e;}.cls-1,.cls-2{stroke-miterlimit:10;}.cls-2{fill:#f6892a;stroke:#f6892a;}.cls-3{font-size:17.93px;font-family:MyriadPro-Regular, Myriad Pro;}.cls-4{letter-spacing:-0.02em;}.cls-5{letter-spacing:-0.01em;}.cls-6{letter-spacing:0em;}.cls-7{letter-spacing:0em;}.cls-8{letter-spacing:0.01em;}</style></defs><g id="Layer_2" data-name="Layer 2"><g id="Layer_1-2" data-name="Layer 1"><path class="cls-1" d="M89.46.5v22h19.4a9.45,9.45,0,0,1,9.45,9.45h0a9.46,9.46,0,0,1-9.45,9.46H68.76L121.5,89.46H152L116,57.81h5.27a22,22,0,0,0,22-22V22.49a22,22,0,0,0-22-22Z"/><path class="cls-1" d="M252.55,22.19H177.87a7.32,7.32,0,0,0-7.32,7.32V60.85a7.31,7.31,0,0,0,7.32,7.31h74.68v21.3H169.71a22.85,22.85,0,0,1-22.84-22.84V23.34A22.84,22.84,0,0,1,169.71.5h82.84Z"/><polygon class="cls-2" points="0.5 0.5 0.5 22.19 39.9 22.19 39.9 89.46 67.17 89.46 67.17 22.19 85.88 22.19 85.88 0.5 0.5 0.5"/><text class="cls-3" transform="translate(43.22 109.07)"><tspan class="cls-4">W</tspan><tspan x="14.88" y="0">ind</tspan><tspan class="cls-5" x="39.14" y="0">o</tspan><tspan x="48.85" y="0">w and </tspan><tspan class="cls-6" x="98.35" y="0">D</tspan><tspan class="cls-7" x="110.36" y="0">oor </tspan><tspan class="cls-8" x="139.71" y="0">S</tspan><tspan x="148.65" y="0">olutions</tspan></text></g></g></svg>