<svg xmlns="http://www.w3.org/2000/svg" viewBox="0 0 324.4 140.9"><defs><style>.cls-1,.cls-5{fill:#9e9d9e;}.cls-1{stroke:#9e9d9e;}.cls-1,.cls-2{stroke-miterlimit:10;}.cls-2{fill:#f6892a;stroke:#f6892a;}.cls-3{fill:none;}.cls-4{isolation:isolate;}</style></defs><g id="Layer_2" data-name="Layer 2"><g id="Layer_1-2" data-name="Layer 1"><path class="cls-1" d="M114.6.5V28.7h24.9a12.08,12.08,0,0,1,12.1,12.1h0a12.08,12.08,0,0,1-12.1,12.1H88.1l67.7,61.7h39.1L148.7,74h6.8a28.17,28.17,0,0,0,28.2-28.2V28.7A28.17,28.17,0,0,0,155.5.5Z"/><path class="cls-1" d="M323.9,28.3H228.1a9.39,9.39,0,0,0-9.4,9.4h0V77.9a9.39,9.39,0,0,0,9.4,9.4h95.8v27.3H217.6a29.28,29.28,0,0,1-29.3-29.3V29.8A29.28,29.28,0,0,1,217.6.5H323.9V28.3Z"/><polygon class="cls-2" points="0.5 0.5 0.5 28.3 51 28.3 51 114.6 86 114.6 86 28.3 110 28.3 110 0.5 0.5 0.5"/><rect class="cls-3" x="0.5" y="121.8" width="323.4" height="19.1"/><g class="cls-4"><path class="cls-5" d="M23.7,122.1l-5,18.6H16.3l-3.6-13.6a5.82,5.82,0,0,1-.3-1.9h0a12.5,12.5,0,0,1-.3,1.9L8.5,140.7H6L.8,122.1H3.1l3.7,14.2a5.82,5.82,0,0,1,.3,1.9h.1a9.25,9.25,0,0,1,.4-1.9l3.9-14.2h2l3.7,14.3c.1.5.2,1.1.3,1.7h0a8.21,8.21,0,0,1,.3-1.8L21.4,122h2.3Z"/><path class="cls-5" d="M27.1,124a1,1,0,0,1-.9-.4,1.45,1.45,0,0,1,0-2,1.22,1.22,0,0,1,.9-.4,1,1,0,0,1,.9.4,1.45,1.45,0,0,1,0,2A1.09,1.09,0,0,1,27.1,124Zm1,16.6h-2V127.3h2Z"/><path class="cls-5" d="M42.6,140.6h-2V133c0-2.8-1-4.2-2.9-4.2a3.17,3.17,0,0,0-2.5,1.2,4.36,4.36,0,0,0-1,3v7.6h-2V127.3h2v2.2h0a4.46,4.46,0,0,1,4.1-2.5,4,4,0,0,1,3.2,1.4,6.68,6.68,0,0,1,1.1,4.1Z"/><path class="cls-5" d="M57.1,140.6h-2v-2.3h0a4.88,4.88,0,0,1-8.1.8,7.82,7.82,0,0,1-1.4-4.8,8.17,8.17,0,0,1,1.6-5.3,5,5,0,0,1,4.2-2,4.09,4.09,0,0,1,3.8,2.1h0V121h2v19.6Zm-2-6v-2a3.62,3.62,0,0,0-1-2.7,3.47,3.47,0,0,0-2.6-1.1,3.56,3.56,0,0,0-2.9,1.4,6.45,6.45,0,0,0-1.1,3.9,5.7,5.7,0,0,0,1,3.6,3.45,3.45,0,0,0,5.4,0A3.68,3.68,0,0,0,55.1,134.6Z"/><path class="cls-5" d="M66.5,140.9A5.68,5.68,0,0,1,62,139a7.11,7.11,0,0,1-1.7-4.9,7.56,7.56,0,0,1,1.7-5.2,6,6,0,0,1,4.7-1.9,5.58,5.58,0,0,1,4.4,1.8,7.26,7.26,0,0,1,1.6,5.1A7.65,7.65,0,0,1,71,139,5.55,5.55,0,0,1,66.5,140.9Zm.1-12a4,4,0,0,0-3.1,1.4,5.56,5.56,0,0,0-1.1,3.8,5.82,5.82,0,0,0,1.1,3.7,4,4,0,0,0,3.1,1.4,3.54,3.54,0,0,0,3-1.3,6.13,6.13,0,0,0,1.1-3.8,5.93,5.93,0,0,0-1.1-3.8A3.37,3.37,0,0,0,66.6,128.9Z"/><path class="cls-5" d="M91.8,127.4,88,140.6H85.9l-2.6-9.5a5,5,0,0,1-.2-1.2h0a3.46,3.46,0,0,1-.3,1.2L80,140.6H78l-3.8-13.3h2.1l2.6,10c.1.3.1.7.2,1.2h.1a5,5,0,0,1,.2-1.2l2.9-9.9h1.8l2.6,10c.1.3.1.7.2,1.2H87a7.38,7.38,0,0,1,.2-1.2l2.6-10Z"/><path class="cls-5" d="M93.4,140.1v-2.3a5.51,5.51,0,0,0,3.6,1.3c1.8,0,2.7-.6,2.7-1.9a2,2,0,0,0-.2-.9c-.2-.2-.4-.5-.6-.7a4.05,4.05,0,0,0-.9-.5,11.73,11.73,0,0,0-1.1-.5c-.6-.2-1-.5-1.5-.7a4.44,4.44,0,0,1-1.1-.8,2.07,2.07,0,0,1-.6-1,5.07,5.07,0,0,1-.2-1.3,2.73,2.73,0,0,1,.4-1.6A3.18,3.18,0,0,1,95,128a5.07,5.07,0,0,1,1.5-.7,5.54,5.54,0,0,1,1.8-.2,6.53,6.53,0,0,1,2.9.6v2.1a5.78,5.78,0,0,0-3.2-1,3.08,3.08,0,0,0-1,.1,2,2,0,0,0-.8.4,2.65,2.65,0,0,0-.5.6,1.88,1.88,0,0,0-.2.8,2.92,2.92,0,0,0,.2.9,2.65,2.65,0,0,0,.5.6,5.58,5.58,0,0,0,.8.5,11.73,11.73,0,0,0,1.1.5,10.74,10.74,0,0,1,1.5.7,4.44,4.44,0,0,1,1.1.8,2.29,2.29,0,0,1,.7,1,2.9,2.9,0,0,1,.3,1.4,3.06,3.06,0,0,1-.4,1.7,3.18,3.18,0,0,1-1.1,1.2,4.59,4.59,0,0,1-1.6.7,5.84,5.84,0,0,1-1.9.2A5.78,5.78,0,0,1,93.4,140.1Z"/><path class="cls-5" d="M120.7,140.6h-2v-2.1h0a4.25,4.25,0,0,1-3.9,2.4,3.63,3.63,0,0,1-4-3.8c0-2.5,1.4-3.9,4.2-4.3l3.8-.6c0-2.3-.9-3.4-2.6-3.4a5.91,5.91,0,0,0-4.1,1.6v-2.2a7.72,7.72,0,0,1,4.3-1.2c3,0,4.4,1.6,4.4,4.9v8.7Zm-2-6.7-3,.4a5.17,5.17,0,0,0-2.1.7,2.11,2.11,0,0,0-.7,1.9,2,2,0,0,0,.7,1.6,2.44,2.44,0,0,0,1.8.6,3.41,3.41,0,0,0,2.5-1.1,3.86,3.86,0,0,0,1-2.8v-1.3Z"/><path class="cls-5" d="M134.9,140.6h-2V133c0-2.8-1-4.2-2.9-4.2a3.17,3.17,0,0,0-2.5,1.2,4.36,4.36,0,0,0-1,3v7.6h-2V127.3h2v2.2h0a4.46,4.46,0,0,1,4.1-2.5,4,4,0,0,1,3.2,1.4,6.68,6.68,0,0,1,1.1,4.1v8.1Z"/><path class="cls-5" d="M149.5,140.6h-2v-2.3h0a4.88,4.88,0,0,1-8.1.8,7.82,7.82,0,0,1-1.4-4.8,8.17,8.17,0,0,1,1.6-5.3,5,5,0,0,1,4.2-2,4.09,4.09,0,0,1,3.8,2.1h0V121h2v19.6Zm-2-6v-2a3.62,3.62,0,0,0-1-2.7,3.47,3.47,0,0,0-2.6-1.1,3.56,3.56,0,0,0-2.9,1.4,6.45,6.45,0,0,0-1.1,3.9,5.7,5.7,0,0,0,1,3.6,3.45,3.45,0,0,0,5.4,0A4,4,0,0,0,147.5,134.6Z"/><path class="cls-5" d="M160.7,140.6V122h4.9q9.3,0,9.3,9a8.94,8.94,0,0,1-9.5,9.5h-4.7Zm2.1-16.6v14.6h2.6a6.77,6.77,0,0,0,7.3-7.5c0-4.8-2.4-7.1-7.2-7.1Z"/><path class="cls-5" d="M183.3,140.9a5.68,5.68,0,0,1-4.5-1.9,7.11,7.11,0,0,1-1.7-4.9,7.56,7.56,0,0,1,1.7-5.2,6,6,0,0,1,4.7-1.9,5.58,5.58,0,0,1,4.4,1.8,7.26,7.26,0,0,1,1.6,5.1,7.65,7.65,0,0,1-1.7,5.1A5.42,5.42,0,0,1,183.3,140.9Zm.2-12a4,4,0,0,0-3.1,1.4,5.56,5.56,0,0,0-1.1,3.8,5.82,5.82,0,0,0,1.1,3.7,4,4,0,0,0,3.1,1.4,3.54,3.54,0,0,0,3-1.3,6.13,6.13,0,0,0,1.1-3.8,5.93,5.93,0,0,0-1.1-3.8A3.37,3.37,0,0,0,183.5,128.9Z"/><path class="cls-5" d="M198.1,140.9a5.68,5.68,0,0,1-4.5-1.9,7.11,7.11,0,0,1-1.7-4.9,7.56,7.56,0,0,1,1.7-5.2,6,6,0,0,1,4.7-1.9,5.58,5.58,0,0,1,4.4,1.8,7.26,7.26,0,0,1,1.6,5.1,7.65,7.65,0,0,1-1.7,5.1A5.55,5.55,0,0,1,198.1,140.9Zm.1-12a4,4,0,0,0-3.1,1.4,5.56,5.56,0,0,0-1.1,3.8,5.82,5.82,0,0,0,1.1,3.7,4,4,0,0,0,3.1,1.4,3.54,3.54,0,0,0,3-1.3,6.13,6.13,0,0,0,1.1-3.8,5.93,5.93,0,0,0-1.1-3.8A3.37,3.37,0,0,0,198.2,128.9Z"/><path class="cls-5" d="M214.1,129.5a2.41,2.41,0,0,0-1.5-.4,2.51,2.51,0,0,0-2.2,1.3,6.05,6.05,0,0,0-.9,3.5v6.8h-2V127.4h2v2.7h0a4.79,4.79,0,0,1,1.3-2.2,3,3,0,0,1,2-.8,3.73,3.73,0,0,1,1.2.2v2.2Z"/><path class="cls-5" d="M222.7,139.9v-2.6a3.59,3.59,0,0,0,1,.7,7.85,7.85,0,0,0,2.5.8c.4,0,.8.1,1.2.1a4.28,4.28,0,0,0,2.8-.7,2.58,2.58,0,0,0,.9-2.1,2.77,2.77,0,0,0-.3-1.3,2.84,2.84,0,0,0-.9-1,14.63,14.63,0,0,0-1.3-.9c-.5-.3-1-.6-1.6-.9s-1.2-.7-1.7-1a7.55,7.55,0,0,1-1.4-1.1,4.19,4.19,0,0,1-.9-1.4,4.84,4.84,0,0,1-.3-1.8,5.09,5.09,0,0,1,.5-2.2,5,5,0,0,1,1.4-1.5,6.11,6.11,0,0,1,2-.9,8.33,8.33,0,0,1,2.2-.3,7.55,7.55,0,0,1,3.8.7v2.4a6.31,6.31,0,0,0-4-1.1,6.6,6.6,0,0,0-1.4.1,3.34,3.34,0,0,0-1.2.5,3.82,3.82,0,0,0-.9.9,2.77,2.77,0,0,0-.3,1.3,2.13,2.13,0,0,0,.3,1.2,3.11,3.11,0,0,0,.7.9,3.6,3.6,0,0,0,1.2.8c.5.3,1,.6,1.6.9s1.2.7,1.8,1a9.83,9.83,0,0,1,1.5,1.2,4,4,0,0,1,1,1.5,4.78,4.78,0,0,1,.4,1.8,5.21,5.21,0,0,1-.5,2.3,4,4,0,0,1-1.4,1.5,6.11,6.11,0,0,1-2,.9,9.28,9.28,0,0,1-2.4.3,3.75,3.75,0,0,1-1-.1c-.4-.1-.8-.1-1.3-.2s-.8-.2-1.2-.3A2.93,2.93,0,0,1,222.7,139.9Z"/><path class="cls-5" d="M241.8,140.9a5.68,5.68,0,0,1-4.5-1.9,7.11,7.11,0,0,1-1.7-4.9,7.56,7.56,0,0,1,1.7-5.2A6,6,0,0,1,242,127a5.58,5.58,0,0,1,4.4,1.8,7.26,7.26,0,0,1,1.6,5.1,7.65,7.65,0,0,1-1.7,5.1A5.55,5.55,0,0,1,241.8,140.9Zm.2-12a4,4,0,0,0-3.1,1.4,5.56,5.56,0,0,0-1.1,3.8,5.82,5.82,0,0,0,1.1,3.7,4,4,0,0,0,3.1,1.4,3.54,3.54,0,0,0,3-1.3,6.13,6.13,0,0,0,1.1-3.8,5.93,5.93,0,0,0-1.1-3.8A3.37,3.37,0,0,0,242,128.9Z"/><path class="cls-5" d="M253.3,140.6h-2V121h2Z"/><path class="cls-5" d="M267.6,140.6h-2v-2.1h0a4.06,4.06,0,0,1-3.9,2.4c-3,0-4.5-1.9-4.5-5.6v-7.9h2V135q0,4.2,3,4.2a3,3,0,0,0,2.4-1.1,4.7,4.7,0,0,0,1-3v-7.6h2Z"/><path class="cls-5" d="M277.5,140.5a3.58,3.58,0,0,1-1.9.4q-3.3,0-3.3-3.9v-7.8h-2.2v-1.8h2.2v-3.2l2-.7v3.9h3.2v1.8h-3.2v7.5a3.16,3.16,0,0,0,.4,1.9,1.68,1.68,0,0,0,1.4.6,2,2,0,0,0,1.3-.4v1.7Z"/><path class="cls-5" d="M281.2,124a1,1,0,0,1-.9-.4,1.45,1.45,0,0,1,0-2,1.22,1.22,0,0,1,.9-.4,1,1,0,0,1,.9.4,1.78,1.78,0,0,1,.4,1,1.28,1.28,0,0,1-.4,1A1,1,0,0,1,281.2,124Zm1,16.6h-2V127.3h2Z"/><path class="cls-5" d="M291.5,140.9A5.68,5.68,0,0,1,287,139a7.11,7.11,0,0,1-1.7-4.9,7.56,7.56,0,0,1,1.7-5.2,6,6,0,0,1,4.7-1.9,5.58,5.58,0,0,1,4.4,1.8,7.26,7.26,0,0,1,1.6,5.1A7.65,7.65,0,0,1,296,139,5.55,5.55,0,0,1,291.5,140.9Zm.2-12a4,4,0,0,0-3.1,1.4,5.56,5.56,0,0,0-1.1,3.8,5.82,5.82,0,0,0,1.1,3.7,4,4,0,0,0,3.1,1.4,3.54,3.54,0,0,0,3-1.3,6.13,6.13,0,0,0,1.1-3.8,5.93,5.93,0,0,0-1.1-3.8A3.37,3.37,0,0,0,291.7,128.9Z"/><path class="cls-5" d="M311.5,140.6h-2V133c0-2.8-1-4.2-2.9-4.2a3.17,3.17,0,0,0-2.5,1.2,4.36,4.36,0,0,0-1,3v7.6h-2V127.3h2v2.2h0a4.46,4.46,0,0,1,4.1-2.5,4,4,0,0,1,3.2,1.4,6.68,6.68,0,0,1,1.1,4.1v8.1Z"/><path class="cls-5" d="M314.5,140.1v-2.3a5.51,5.51,0,0,0,3.6,1.3c1.8,0,2.7-.6,2.7-1.9a2,2,0,0,0-.2-.9c-.2-.2-.4-.5-.6-.7a4.05,4.05,0,0,0-.9-.5,11.73,11.73,0,0,0-1.1-.5c-.6-.2-1-.5-1.5-.7a4.44,4.44,0,0,1-1.1-.8,2.07,2.07,0,0,1-.6-1,5.07,5.07,0,0,1-.2-1.3,2.73,2.73,0,0,1,.4-1.6,3.18,3.18,0,0,1,1.1-1.2,5.07,5.07,0,0,1,1.5-.7,9.91,9.91,0,0,1,1.8-.2,6.53,6.53,0,0,1,2.9.6v2.1a5.78,5.78,0,0,0-3.2-1,3.08,3.08,0,0,0-1,.1,2,2,0,0,0-.8.4,2.65,2.65,0,0,0-.5.6,1.88,1.88,0,0,0-.2.8,2.92,2.92,0,0,0,.2.9,2.65,2.65,0,0,0,.5.6,5.58,5.58,0,0,0,.8.5,9.74,9.74,0,0,1,1.1.5,10.74,10.74,0,0,1,1.5.7,4.44,4.44,0,0,1,1.1.8,2.29,2.29,0,0,1,.7,1,2.9,2.9,0,0,1,.3,1.4,3.06,3.06,0,0,1-.4,1.7,3.18,3.18,0,0,1-1.1,1.2,4.59,4.59,0,0,1-1.6.7,5.84,5.84,0,0,1-1.9.2A6.22,6.22,0,0,1,314.5,140.1Z"/></g></g></g></svg>