<svg xmlns="http://www.w3.org/2000/svg" width="78.111" height="86.802" viewBox="0 0 78.111 86.802">
  <g id="Group_79" data-name="Group 79" transform="translate(-8.989 -4.636)">
    <path id="Path_367" data-name="Path 367" d="M49,4.9,85.8,23.2a2.308,2.308,0,0,1,1.3,2.2c-1,16.4-5.2,29.6-11.8,40.4A74.346,74.346,0,0,1,49.2,91.1a2.3,2.3,0,0,1-2.4,0A75.189,75.189,0,0,1,20.7,65.8C14.2,54.9,10,41.7,9,25.3a2.217,2.217,0,0,1,1.3-2.2L47,4.9a2.036,2.036,0,0,1,2,0ZM51.7,60H44.2c-.3,0-.5-.1-.8-.1A2.268,2.268,0,0,1,42,57l2.4-6.8a7.822,7.822,0,0,1-3-2.7,7.77,7.77,0,0,1,6.5-12,7.877,7.877,0,0,1,5.5,2.3h0a7.7,7.7,0,0,1,2.3,5.5,8.558,8.558,0,0,1-1.2,4.2,7.822,7.822,0,0,1-3,2.7l2.3,6.7a2.92,2.92,0,0,1,.2.9A2.242,2.242,0,0,1,51.7,60Z" fill-rule="evenodd"/>
  </g>
</svg>
