<svg xmlns="http://www.w3.org/2000/svg" width="55.999" height="58.56" viewBox="0 0 55.999 58.56">
  <g id="noun_season_3256255" transform="translate(-4 5.28)">
    <g id="Group_35" data-name="Group 35" transform="translate(0 -8)">
      <path id="Path_192" data-name="Path 192" d="M26.38,58.22,31,54.52v2.56l-3.38,2.7a1,1,0,0,1-1.24-1.56ZM26.2,24.782,20.254,18.84l.654-5.886a1,1,0,0,0-1.988-.221l-.477,4.3L16.719,15.3l.654-5.887A1,1,0,1,0,15.385,9.2l-.477,4.3-3.2-3.2a1,1,0,1,0-1.414,1.414l3.2,3.2-4.3.478a1,1,0,1,0,.221,1.988l5.886-.655,1.725,1.725-4.3.478a1,1,0,1,0,.221,1.988l5.887-.654L25,26.414V31H16.481l-3.7-4.625a1,1,0,1,0-1.562,1.249L13.92,31H11.481l-3.7-4.625a1,1,0,1,0-1.562,1.249L8.92,31H5a1,1,0,0,0,0,2H8.92l-2.7,3.375a1,1,0,0,0,1.563,1.249L11.481,33H13.92l-2.7,3.375a1,1,0,0,0,1.563,1.249L16.481,33H25v4a.929.929,0,0,0,.12.46v.006l-6.28,6.28-5.887-.654a1,1,0,1,0-.221,1.988l4.3.477L15.3,47.281l-5.886-.654A1,1,0,1,0,9.2,48.615l4.3.477-3.2,3.2a1,1,0,1,0,1.414,1.414l3.2-3.2.477,4.3a1,1,0,0,0,.993.89.957.957,0,0,0,.111-.006,1,1,0,0,0,.884-1.1L16.719,48.7l1.724-1.724.477,4.3a1,1,0,0,0,1.988-.221l-.654-5.887,6.472-6.472,0,0L31,41.54V22.38l-4.8,2.4ZM44,32A12.018,12.018,0,0,0,33,20.04V43.96A12.018,12.018,0,0,0,44,32Zm10.42,1.72a3.044,3.044,0,0,1,0-3.44l5.4-7.71a1.031,1.031,0,0,0,.11-.95,1,1,0,0,0-.74-.6l-7.7-1.47a3.01,3.01,0,0,1-2.43-3.16l.57-8.08a1.01,1.01,0,0,0-.43-.89.983.983,0,0,0-.98-.09l-7.4,3.3a3,3,0,0,1-3.8-1.2L33,2.72V18.04a14,14,0,0,1,0,27.92V61.28l4.02-6.71a3,3,0,0,1,3.8-1.2l7.4,3.3a1,1,0,0,0,1.41-.98l-.76-10.73,10.32-1.98a1,1,0,0,0,.74-.6,1.031,1.031,0,0,0-.11-.95ZM26.22,4.38a.981.981,0,0,0,.16,1.4L31,9.48V6.92l-3.38-2.7a1,1,0,0,0-1.4.16Zm0,5a.981.981,0,0,0,.16,1.4L31,14.48V11.92l-3.38-2.7a.982.982,0,0,0-1.4.16Zm0,45.24a.988.988,0,0,0,1.4.16L31,52.08V49.52l-4.62,3.7a.981.981,0,0,0-.16,1.4Z"/>
    </g>
  </g>
</svg>
