<svg xmlns="http://www.w3.org/2000/svg" width="82.042" height="101.998" viewBox="0 0 82.042 101.998">
  <g id="Group_80" data-name="Group 80" transform="translate(-8.979 2)">
    <path id="Path_368" data-name="Path 368" d="M11.918,11.712a2.883,2.883,0,0,0,3.638-1.838L18.8,0,10.932,6.792a2.883,2.883,0,0,0,.986,4.92Z" transform="translate(0 7.587)"/>
    <path id="Path_369" data-name="Path 369" d="M84.14,11.712a2.881,2.881,0,0,0,3.637-1.838L91.021,0,83.154,6.792a2.883,2.883,0,0,0,.986,4.92Z" transform="translate(0 7.587)"/>
    <path id="Path_370" data-name="Path 370" d="M29.974,11.712a2.883,2.883,0,0,0,3.638-1.838L36.855,0,28.988,6.792a2.883,2.883,0,0,0,.986,4.92Z"/>
    <path id="Path_371" data-name="Path 371" d="M48.028,11.712a2.882,2.882,0,0,0,3.638-1.838L54.91,0,47.044,6.792a2.883,2.883,0,0,0,.984,4.92Z" transform="translate(0 -2)"/>
    <path id="Path_372" data-name="Path 372" d="M66.084,11.712a2.884,2.884,0,0,0,3.639-1.838L72.966,0,65.1,6.792a2.883,2.883,0,0,0,.985,4.92Z"/>
    <path id="Path_373" data-name="Path 373" d="M49.355,19.444A41,41,0,0,0,8.979,53.593a24.183,24.183,0,0,1,25.639,2.432A23.851,23.851,0,0,1,46.577,51.18V88.887a11.111,11.111,0,1,0,22.221,0,2.778,2.778,0,0,0-5.555,0,5.556,5.556,0,1,1-11.112,0v-37.7a23.835,23.835,0,0,1,11.96,4.845A24.186,24.186,0,0,1,89.732,53.6,41.008,41.008,0,0,0,49.355,19.444Z"/>
  </g>
</svg>
