<svg xmlns="http://www.w3.org/2000/svg" width="421.235" height="63.249" viewBox="0 0 421.235 63.249"><g transform="translate(-17.482 -24.2)"><path d="M93.5,42.8" transform="translate(135.579 33.445)" fill="#c4c4c4"/><path d="M95.654,68.231l3.078,9.234a7.746,7.746,0,0,1,.839,3.638c0,3.078-1.679,4.477-3.917,5.876v.28h28.821v-.28c-5.6-5.037-5.876-7.275-8.115-13.431L98.172,24.3h-23.5v.28a6.625,6.625,0,0,1,3.638,5.6c0,1.959-1.4,5.876-2.239,7.555L62.916,76.065c-1.679,4.757-3.078,7.555-6.716,10.913v.28H75.787v-.28c-1.679-1.4-3.358-2.8-3.358-5.316,0-1.959,1.119-5.037,1.679-7l2.239-6.436Zm-3.078-8.954H79.424L85.86,40.529h0Z" transform="translate(68.509 0.18)" fill="#c4c4c4" fill-rule="evenodd"/><path d="M86.2,73.556c0,5.037.56,10.353-3.917,13.431v.28h21.546c10.633,0,20.426.56,29.1-6.436,7.275-5.876,11.193-15.39,11.193-24.624,0-10.353-4.2-20.147-12.871-26.3s-18.188-5.6-28.541-5.6H82v.28a8.806,8.806,0,0,1,3.638,4.757c.56,2.8.56,11.472.56,14.83Zm17.628-38.614a49.952,49.952,0,0,1,6.436-.56c11.752,0,15.11,11.752,15.11,21.546,0,5.037-.839,10.353-3.358,14.55-3.078,5.316-7,7-13.151,7a19.013,19.013,0,0,1-5.316-.839V34.941Z" transform="translate(114.901 0.171)" fill="#c4c4c4" fill-rule="evenodd"/><path d="M140.856,24.2c-19.027,0-35.257,12.032-35.257,31.339s14.83,31.619,34.137,31.619c19.027,0,35.256-11.752,35.256-31.619C174.994,35.393,160.443,24.2,140.856,24.2Zm-.839,53.724c-8.674,0-15.39-8.674-15.39-22.385s7.275-22.105,15.949-22.105c8.954,0,15.39,7.835,15.39,22.105S148.691,77.924,140.017,77.924Z" transform="translate(157.337 0)" fill="#c4c4c4" fill-rule="evenodd"/><path d="M95.6,43.4" transform="translate(139.355 34.524)" fill="#c4c4c4"/><path d="M79.1,42.5" transform="translate(109.686 32.906)" fill="#c4c4c4"/><path d="M134.6,32.5a73.91,73.91,0,0,1,.56,8.115c0,3.078-.28,5.876-.56,8.954l53.165.28L205.113,32.78H134.6Z" transform="translate(209.483 14.925)" fill="#c4c4c4" stroke="#c4c4c4" stroke-miterlimit="10" stroke-width="0.5"/><path d="M132.46,24.3h-.56a60.33,60.33,0,0,1,6.716,17.069h77.228L233.472,24.3Z" transform="translate(204.628 0.18)" fill="#c4c4c4" stroke="#c4c4c4" stroke-miterlimit="10" stroke-width="0.5"/><path d="M132.46,57.669h-.56A60.331,60.331,0,0,0,138.616,40.6h48.128L169.395,57.669Z" transform="translate(204.628 29.489)" fill="#c4c4c4" stroke="#c4c4c4" stroke-miterlimit="10" stroke-width="0.5"/><path d="M96.913,32.5a73.921,73.921,0,0,0-.56,8.115c0,3.078.28,5.876.56,8.954l-53.165.28L26.4,32.78H96.913Z" transform="translate(14.925 14.925)" fill="#c4c4c4" stroke="#c4c4c4" stroke-miterlimit="10" stroke-width="0.5"/><path d="M119.113,24.3h.56a60.331,60.331,0,0,0-6.716,17.069H35.728L18.1,24.3Z" transform="translate(0 0.18)" fill="#c4c4c4" stroke="#c4c4c4" stroke-miterlimit="10" stroke-width="0.5"/><path d="M89.084,57.669h.56A60.33,60.33,0,0,1,82.928,40.6H34.8L52.148,57.669Z" transform="translate(30.029 29.489)" fill="#c4c4c4" stroke="#c4c4c4" stroke-miterlimit="10" stroke-width="0.5"/></g></svg>