<svg xmlns="http://www.w3.org/2000/svg" width="78.011" height="99.148" viewBox="0 0 78.011 99.148">
  <g id="noun_Mute_248989" transform="translate(28.511 -192.211)">
    <g id="noun_energy_saving_2085414" data-name="noun_energy saving_2085414" transform="translate(-39.5 191.785)">
      <path id="Path_361" data-name="Path 361" d="M71.72,72.6c-.34.15-.69.3-1.06.44l-.24.08c-.41.14-.84.28-1.29.4h-.14c-.51.13-1,.26-1.57.36a28.24,28.24,0,0,1-5.3.49,21.854,21.854,0,0,1-11-2.54v6.91c.59.64,2.21,1.42,4.76,1.95v3.06a19.24,19.24,0,0,1-4.76-1.44v1.48h0a5.36,5.36,0,0,0,1.76,1V88a14.409,14.409,0,0,1-1.79-.71v1.62l.12-.13c1.2,1.09,4.7,2.25,9.79,2.39l-.08,3a25.3,25.3,0,0,1-9.82-1.94v1.32c.21.69,3.92,2.59,11,2.59s10.77-1.88,11-2.6V92.12a22.31,22.31,0,0,1-7.68,1.94V91a24.62,24.62,0,0,0,4-.71h0l.79-.24h.14l.68-.25h0c1.35-.55,2-1.11,2-1.4h0V87.2a18.55,18.55,0,0,1-5.24,1.6h0l-.59.09h0a35.84,35.84,0,0,1-5.31.39c-1.15,0-2.3-.05-3.41-.16l.28-3c1,.09,2.07.14,3.14.14a30.26,30.26,0,0,0,6.29-.62h0a19.3,19.3,0,0,0,1.92-.51h.13l.65-.24h.12a8.12,8.12,0,0,0,1.16-.56l.08-.05.3-.21.09-.08.18-.18.06-.07a.67.67,0,0,0,.12-.22h0V82.3a13.15,13.15,0,0,1-1.22.51l-.29.1c-.36.12-.72.24-1.1.35l-.24.06c-.43.11-.86.22-1.31.31h-.11q-.76.15-1.54.27a35.6,35.6,0,0,1-5.13.38h-1l.08-3h.92a30.45,30.45,0,0,0,6.33-.62h.1c.38-.08.75-.17,1.09-.27h0q.52-.14,1-.3h0a5.64,5.64,0,0,0,2.43-1.37V77.33a18.49,18.49,0,0,1-4.48,1.38h0c-.45.09-.9.16-1.35.23a36.261,36.261,0,0,1-5.1.37A36.7,36.7,0,0,1,58,79.07l.34-3a33.57,33.57,0,0,0,3.84.22,29.77,29.77,0,0,0,6.87-.75h0a16.1,16.1,0,0,0,2-.62h0l.52-.22h0l.43-.21h.06l.33-.2h.07l.26-.19.07-.05a2.35,2.35,0,0,0,.25-.24V71.87a12.059,12.059,0,0,1-1.14.61Z" fill-rule="evenodd"/>
      <path id="Path_362" data-name="Path 362" d="M58.84,60.52l10.92-13.7a1.5,1.5,0,0,0-1.17-2.44H47.13L55.52,2.27A1.5,1.5,0,0,0,52.88,1L11.32,53.18a1.5,1.5,0,0,0,1.17,2.44H34L25.57,97.73A1.5,1.5,0,0,0,28.21,99l19.9-25V68.48a1.49,1.49,0,0,1,0-.23,3.93,3.93,0,0,1-.11-.87C48,63.93,52.5,61.22,58.84,60.52Z" fill-rule="evenodd"/>
      <path id="Path_363" data-name="Path 363" d="M62.12,63.34c-6.78,0-11.1,2.39-11.1,4s4.32,4,11.1,4,11.1-2.39,11.1-4S68.9,63.34,62.12,63.34Z" fill-rule="evenodd"/>
      <path id="Path_364" data-name="Path 364" d="M89,73.53c0-1.65-4.22-4-10.84-4a15.986,15.986,0,0,0-2,.08v7.9c.65.05,1.33.08,2,.08C84.79,77.56,89,75.17,89,73.53Z" fill-rule="evenodd"/>
      <path id="Path_365" data-name="Path 365" d="M76.14,80.49v2c.68,0,1.36.07,2.05.07,5.43,0,9.53-1.23,10.8-2.44V78c-2.49,1.57-6.34,2.55-10.81,2.55C77.48,80.56,76.8,80.53,76.14,80.49Z" fill-rule="evenodd"/>
      <path id="Path_366" data-name="Path 366" d="M76.14,85.51v1.92l.93.05v3h-.93v2h2c6.17,0,10-1,10.84-1.67v-2.2a23.84,23.84,0,0,1-7.29,1.75v-3c3.87-.4,6.39-1.38,7.29-2.26V83.7c-3,1.38-7.33,1.91-10.8,1.91C77.5,85.57,76.82,85.55,76.14,85.51Z" fill-rule="evenodd"/>
    </g>
  </g>
</svg>
