<svg xmlns="http://www.w3.org/2000/svg" width="57.698" height="46.384" viewBox="0 0 57.698 46.384">
  <g id="no-sound" transform="translate(0 -50.201)">
    <path id="Path_348" data-name="Path 348" d="M333.931,186.345a1.69,1.69,0,0,0,2.391,0l7.176-7.176,7.176,7.176a1.69,1.69,0,0,0,2.391-2.391l-7.176-7.176,7.176-7.176a1.69,1.69,0,1,0-2.39-2.391l-7.176,7.176-7.176-7.176a1.69,1.69,0,1,0-2.391,2.391l7.176,7.176-7.176,7.176A1.69,1.69,0,0,0,333.931,186.345Z" transform="translate(-295.86 -103.386)"/>
    <path id="Path_349" data-name="Path 349" d="M1.69,146.429H8.452v24.7H1.69A1.69,1.69,0,0,1,0,169.434V148.119A1.69,1.69,0,0,1,1.69,146.429Z" transform="translate(0 -85.384)"/>
    <path id="Path_350" data-name="Path 350" d="M127.4,53.4V93.385a3.193,3.193,0,0,1-4.734,2.8L105,86.456V60.329L122.67,50.6a3.193,3.193,0,0,1,4.734,2.8Z" transform="translate(-93.167)"/>
  </g>
</svg>
