<svg xmlns="http://www.w3.org/2000/svg" width="63.4" height="63.474" viewBox="0 0 63.4 63.474">
  <g id="noun_Time_Saving_3189005" data-name="noun_Time Saving_3189005" transform="translate(-32 -32)">
    <path id="Path_186" data-name="Path 186" d="M238.793,34.477V33.132A1.135,1.135,0,0,0,237.661,32h-4.529A1.135,1.135,0,0,0,232,33.132v1.344A27.277,27.277,0,0,1,238.793,34.477Z" transform="translate(-171.697)"/>
    <circle id="Ellipse_14" data-name="Ellipse 14" cx="2" cy="2" r="2" transform="translate(62 59)"/>
    <path id="Path_187" data-name="Path 187" d="M262.67,136.671l6.071-13.571a.272.272,0,0,0-.467-.269L259.5,134.818A4.493,4.493,0,0,1,262.67,136.671Z" transform="translate(-195.305 -77.882)"/>
    <path id="Path_188" data-name="Path 188" d="M389.107,92.594l1.528-1.528a1.136,1.136,0,0,0,0-1.6L388.187,87a1.136,1.136,0,0,0-1.6,0L385.3,88.292A28.265,28.265,0,0,1,389.107,92.594Z" transform="translate(-303.302 -46.938)"/>
    <path id="Path_189" data-name="Path 189" d="M94.013,323.651a3.153,3.153,0,0,0-2.958-.354l-24.681,9.354a5.672,5.672,0,0,1-5.321-.693l-5.576-4.033h-6.5v-2.264H64.266a2.83,2.83,0,1,0,0-5.661H51.8a5.666,5.666,0,0,0-4,1.656l-1.684,1.684a7.914,7.914,0,0,1-5.6,2.321H32v13.586H46.873l10.345,2.915a14.72,14.72,0,0,0,10.218-.821L93.546,329.2a3.2,3.2,0,0,0,1.854-2.915A3.139,3.139,0,0,0,94.013,323.651Z" transform="translate(0 -247.243)"/>
    <path id="Path_190" data-name="Path 190" d="M160.145,230.483l9.2,1.443a4.528,4.528,0,0,1-.014-3.227l-9.184,1.415a.19.19,0,0,0-.156.212.2.2,0,0,0,.156.156Z" transform="translate(-109.875 -168.864)"/>
    <path id="Path_191" data-name="Path 191" d="M80.2,90.211a24.667,24.667,0,0,0,4.33,12.935,6.011,6.011,0,0,0,1.373-1l1.684-1.684a7.914,7.914,0,0,1,5.6-2.321h12.453a5.095,5.095,0,0,1,0,10.189h-4.911l3.028,2.179a3.413,3.413,0,0,0,3.184.425l14.972-5.675-3.2-3.2,1.6-1.6,3.92,3.92.693-.269a24.619,24.619,0,0,0,5.024-13.9h-5.632V87.947h5.632a24.882,24.882,0,0,0-5.448-14.435L120.6,77.418l-1.6-1.6,4.019-4.019a24.931,24.931,0,0,0-16.812-7.6v5.632h-2.264V64.2a24.821,24.821,0,0,0-16.8,7.614L91.436,76.1l-1.6,1.6-4.189-4.189A24.692,24.692,0,0,0,80.2,87.947h5.632v2.264Zm11.109-3.552,11.208-1.727,10.005-13.685a2.535,2.535,0,0,1,4.359,2.533L109.225,90.9h0a4.524,4.524,0,0,1-4.741,2.661h0c-.071-.014-.142-.014-.212-.028L91.309,91.5a2.447,2.447,0,0,1,0-4.84Z" transform="translate(-41.379 -27.643)"/>
  </g>
</svg>
