<svg xmlns="http://www.w3.org/2000/svg" viewBox="0 0 351.79 156.16"><defs><style>.cls-1,.cls-4{fill:#fff;}.cls-1{stroke:#fff;}.cls-1,.cls-2{stroke-miterlimit:10;}.cls-2{fill:#f6892a;stroke:#f6892a;}.cls-3{fill:none;}</style></defs><g id="Layer_2" data-name="Layer 2"><g id="Layer_1-2" data-name="Layer 1"><g id="Layer_2-2" data-name="Layer 2"><g id="Layer_1-2-2" data-name="Layer 1-2"><path class="cls-1" d="M124.27.5V31.09h27a13.11,13.11,0,0,1,13.12,13.08v0h0a13.11,13.11,0,0,1-13.07,13.13H95.52L169,124.26h42.41l-50.12-44h7.38a30.56,30.56,0,0,0,30.59-30.53V31.09A30.56,30.56,0,0,0,168.69.5H124.27Z"/><path class="cls-1" d="M351.29,30.65H247.38a10.19,10.19,0,0,0-10.2,10.18v0h0V84.46a10.18,10.18,0,0,0,10.17,10.19H351.29v29.61H236a31.76,31.76,0,0,1-31.78-31.74V32.28A31.76,31.76,0,0,1,235.92.5H351.26V30.65Z"/><polygon class="cls-2" points="0.5 0.5 0.5 30.66 55.28 30.66 55.28 124.26 93.24 124.26 93.24 30.66 119.28 30.66 119.28 0.5 0.5 0.5"/><rect class="cls-3" x="54.82" y="135.38" width="296.96" height="20.72"/><path class="cls-4" d="M75.53,135.71l-4.62,20.17H68.68l-3.31-14.75a7.87,7.87,0,0,1-.27-2.06h0a15.93,15.93,0,0,1-.28,2.06l-3.34,14.75H59.17l-4.8-20.17h2.12l3.39,15.4a7.87,7.87,0,0,1,.27,2.06h.14a11.87,11.87,0,0,1,.38-2.06l3.59-15.4h1.86l3.38,15.51c.1.54.19,1.19.28,1.84h0a10.66,10.66,0,0,1,.28-1.95l3.33-15.51h2.14Z"/><path class="cls-4" d="M78.66,137.77a.84.84,0,0,1-.84-.44,1.77,1.77,0,0,1,0-2.16,1.06,1.06,0,0,1,.84-.44.85.85,0,0,1,.85.44,1.77,1.77,0,0,1,0,2.16A1,1,0,0,1,78.66,137.77Zm.93,18H77.73V141.35h1.86Z"/><path class="cls-4" d="M93,155.77H91.13v-8.24c0-3-.93-4.55-2.68-4.55a2.77,2.77,0,0,0-2.31,1.3,5.29,5.29,0,0,0-.92,3.25v8.24H83.37V141.35h1.85v2.38h0A4.1,4.1,0,0,1,89,141,3.51,3.51,0,0,1,92,142.52,8.26,8.26,0,0,1,93,147Z"/><path class="cls-4" d="M106.37,155.77h-1.84v-2.49h0c-1.19,2.6-3.94,3.58-6.14,2.18A4.8,4.8,0,0,1,97,154.15a9.57,9.57,0,0,1-1.29-5.21,10,10,0,0,1,1.48-5.75,4.44,4.44,0,0,1,3.88-2.19,3.71,3.71,0,0,1,3.51,2.28h0v-8.79h1.84v21.26Zm-1.84-6.5V147.1a4.33,4.33,0,0,0-.93-2.93,3,3,0,0,0-2.4-1.17,3.19,3.19,0,0,0-2.69,1.51,7.94,7.94,0,0,0-1,4.23,6.9,6.9,0,0,0,.93,3.91,2.88,2.88,0,0,0,4.5.58,4.55,4.55,0,0,0,.49-.58A4.46,4.46,0,0,0,104.53,149.27Z"/><path class="cls-4" d="M115.06,156.1a4.89,4.89,0,0,1-4.16-2.1,8.53,8.53,0,0,1-1.57-5.32A9.21,9.21,0,0,1,110.9,143a5.09,5.09,0,0,1,4.33-2,4.8,4.8,0,0,1,4.07,2,8.86,8.86,0,0,1,1.48,5.53,9.28,9.28,0,0,1-1.57,5.47A4.81,4.81,0,0,1,115.06,156.1Zm.08-13a3.45,3.45,0,0,0-2.86,1.52,6.81,6.81,0,0,0-1,4.12,7.22,7.22,0,0,0,1,4,3.45,3.45,0,0,0,2.86,1.52,3.11,3.11,0,0,0,2.78-1.41,7.59,7.59,0,0,0,1-4.13,7.29,7.29,0,0,0-1-4.12,3,3,0,0,0-2.78-1.52Z"/><path class="cls-4" d="M138.42,141.46l-3.51,14.31H133l-2.41-10.3a6.27,6.27,0,0,1-.19-1.3h0a4.38,4.38,0,0,1-.28,1.3l-2.54,10.3h-1.88l-3.5-14.42h1.94l2.39,10.85c.09.32.09.75.19,1.3h.09a6.27,6.27,0,0,1,.19-1.3l2.67-10.74h1.7l2.4,10.84c.08.33.08.76.18,1.31H134a8.27,8.27,0,0,1,.19-1.31l2.4-10.84Z"/><path class="cls-4" d="M139.87,155.23v-2.49a4.65,4.65,0,0,0,3.32,1.41c1.69,0,2.54-.65,2.54-2.06a2.58,2.58,0,0,0-.19-1c-.19-.22-.36-.54-.55-.76a3.82,3.82,0,0,0-.85-.54,6.53,6.53,0,0,0-1-.54c-.55-.22-.92-.55-1.38-.76a4.41,4.41,0,0,1-1-.87,2.41,2.41,0,0,1-.56-1.09,6.64,6.64,0,0,1-.18-1.41,3.21,3.21,0,0,1,.37-1.73,3.31,3.31,0,0,1,1-1.3,4.36,4.36,0,0,1,1.38-.76,4.29,4.29,0,0,1,1.7-.22,5.42,5.42,0,0,1,2.68.65V144a4.88,4.88,0,0,0-3-1.08,2.61,2.61,0,0,0-.92.1,1.76,1.76,0,0,0-.74.44,2.38,2.38,0,0,0-.46.65,2.15,2.15,0,0,0-.18.87,3.39,3.39,0,0,0,.18,1,2.38,2.38,0,0,0,.46.65,4.89,4.89,0,0,0,.74.55c.27.21.65.32,1,.54a8.54,8.54,0,0,1,1.39.76,4.13,4.13,0,0,1,1,.86,2.59,2.59,0,0,1,.64,1.09,3.55,3.55,0,0,1,.28,1.52,3.85,3.85,0,0,1-.37,1.84,3.2,3.2,0,0,1-1,1.3,4,4,0,0,1-1.48.76,6.19,6.19,0,0,1-4.8-.65Z"/><path class="cls-4" d="M165.11,155.77h-1.84V153.5h0a3.92,3.92,0,0,1-3.6,2.6A3.23,3.23,0,0,1,157,155a4.49,4.49,0,0,1-1-3c0-2.71,1.3-4.23,3.88-4.67l3.51-.65c0-2.49-.85-3.68-2.4-3.68a5,5,0,0,0-3.79,1.73v-2.39a6.43,6.43,0,0,1,4-1.3c2.77,0,4.07,1.74,4.07,5.32v9.43Zm-1.84-7.26-2.77.43a4.16,4.16,0,0,0-1.94.76,2.51,2.51,0,0,0-.65,2.06,2.37,2.37,0,0,0,.65,1.74,2.07,2.07,0,0,0,1.69.65,3,3,0,0,0,2.31-1.2,4.61,4.61,0,0,0,.93-3v-1.41Z"/><path class="cls-4" d="M178.23,155.77h-1.85v-8.24c0-3-.92-4.55-2.67-4.55a2.8,2.8,0,0,0-2.32,1.3,5.29,5.29,0,0,0-.92,3.25v8.24h-1.82V141.35h1.85v2.38h0a4.1,4.1,0,0,1,3.78-2.71,3.5,3.5,0,0,1,3,1.52,8.26,8.26,0,0,1,1,4.45v8.78Z"/><path class="cls-4" d="M191.72,155.77h-1.85v-2.49h0c-1.18,2.6-3.92,3.58-6.12,2.18a4.83,4.83,0,0,1-1.36-1.31,9.49,9.49,0,0,1-1.29-5.21,9.88,9.88,0,0,1,1.47-5.75,4.46,4.46,0,0,1,3.86-2.19,3.68,3.68,0,0,1,3.5,2.28h0v-8.79h1.86v21.26Zm-1.85-6.5V147.1a4.28,4.28,0,0,0-.93-2.93,3,3,0,0,0-2.39-1.19,3.19,3.19,0,0,0-2.69,1.51,7.94,7.94,0,0,0-1,4.23,7,7,0,0,0,.92,3.91,2.88,2.88,0,0,0,4.5.58,4.55,4.55,0,0,0,.49-.58A4.75,4.75,0,0,0,189.87,149.27Z"/><path class="cls-4" d="M202.06,155.77V135.6h4.53q8.59,0,8.59,9.76a11.24,11.24,0,0,1-2.41,7.49,7.93,7.93,0,0,1-6.37,2.82h-4.34Zm1.94-18v15.84h2.4c3.43.38,6.46-2.6,6.78-6.64a8.35,8.35,0,0,0,0-1.5c0-5.21-2.22-7.7-6.65-7.7Z"/><path class="cls-4" d="M222.94,156.1a4.9,4.9,0,0,1-4.16-2.06,8.65,8.65,0,0,1-1.57-5.32,9.21,9.21,0,0,1,1.57-5.64,5.13,5.13,0,0,1,4.34-2.06,4.78,4.78,0,0,1,4.06,2,8.74,8.74,0,0,1,1.48,5.53,9.24,9.24,0,0,1-1.6,5.45A4.67,4.67,0,0,1,222.94,156.1Zm.18-13a3.44,3.44,0,0,0-2.83,1.5,6.73,6.73,0,0,0-1,4.12,7.13,7.13,0,0,0,1,4,3.45,3.45,0,0,0,2.86,1.52,3.1,3.1,0,0,0,2.78-1.41,7.59,7.59,0,0,0,1-4.13,7.29,7.29,0,0,0-1-4.12,3,3,0,0,0-2.81-1.5Z"/><path class="cls-4" d="M236.6,156.1a4.91,4.91,0,0,1-4.15-2.06,8.67,8.67,0,0,1-1.57-5.32,9.21,9.21,0,0,1,1.57-5.64,5.13,5.13,0,0,1,4.34-2.06,4.78,4.78,0,0,1,4.06,2,8.81,8.81,0,0,1,1.49,5.53,9.27,9.27,0,0,1-1.58,5.53A4.78,4.78,0,0,1,236.6,156.1Zm.1-13a3.43,3.43,0,0,0-2.86,1.5,6.81,6.81,0,0,0-1,4.12,7.14,7.14,0,0,0,1,4,3.43,3.43,0,0,0,2.86,1.52,3.09,3.09,0,0,0,2.77-1.41,7.51,7.51,0,0,0,1-4.13,7.29,7.29,0,0,0-1-4.12,3,3,0,0,0-2.77-1.5Z"/><path class="cls-4" d="M251.38,143.73a2,2,0,0,0-1.38-.43,2.31,2.31,0,0,0-2,1.41,7.57,7.57,0,0,0-.84,3.8v7.37h-1.85V141.46h1.85v2.93h0a5.41,5.41,0,0,1,1.2-2.39,2.55,2.55,0,0,1,1.85-.87,2.81,2.81,0,0,1,1.1.22v2.38Z"/><path class="cls-4" d="M259.33,155v-2.8a3.17,3.17,0,0,0,.93.75,4.78,4.78,0,0,0,1.11.55,4.46,4.46,0,0,0,1.19.32c.37,0,.74.11,1.11.11a3.55,3.55,0,0,0,2.59-.76,3.07,3.07,0,0,0,.85-2.28,3.73,3.73,0,0,0-.28-1.41,3,3,0,0,0-.85-1.08c-.39-.36-.79-.69-1.2-1s-.93-.65-1.48-1-1.1-.76-1.57-1.09a8.09,8.09,0,0,1-1.3-1.19,4.79,4.79,0,0,1-.84-1.52,5.87,5.87,0,0,1-.28-2,6.39,6.39,0,0,1,.46-2.39,5.26,5.26,0,0,1,3.14-2.63,6.5,6.5,0,0,1,2-.33,6.07,6.07,0,0,1,3.51.76v2.6a5.27,5.27,0,0,0-3.7-1.19,5.2,5.2,0,0,0-1.3.11,3.05,3.05,0,0,0-1.1.54,3.92,3.92,0,0,0-.84,1,3.38,3.38,0,0,0-.27,1.41,2.6,2.6,0,0,0,.27,1.3,3.26,3.26,0,0,0,.65,1,3.06,3.06,0,0,0,1.11.86c.46.33.92.66,1.47,1s1.11.76,1.69,1.09a8.9,8.9,0,0,1,1.38,1.3,4.2,4.2,0,0,1,.93,1.62,6.11,6.11,0,0,1,.37,2,6.55,6.55,0,0,1-.46,2.49,4.35,4.35,0,0,1-1.29,1.63,5.39,5.39,0,0,1-1.85,1,7.28,7.28,0,0,1-2.22.33,2.87,2.87,0,0,1-.92-.11c-.37-.11-.74-.11-1.2-.22s-.75-.21-1.11-.32A2.82,2.82,0,0,1,259.33,155Z"/><path class="cls-4" d="M277,156.1a4.9,4.9,0,0,1-4.23-2.1,8.61,8.61,0,0,1-1.57-5.32,9.21,9.21,0,0,1,1.57-5.64,5.13,5.13,0,0,1,4.34-2.06,4.78,4.78,0,0,1,4.06,2,8.74,8.74,0,0,1,1.48,5.53,9.17,9.17,0,0,1-1.57,5.53A4.81,4.81,0,0,1,277,156.1Zm.19-13a3.46,3.46,0,0,0-2.87,1.52,6.87,6.87,0,0,0-1,4.12,7.13,7.13,0,0,0,1,4,3.46,3.46,0,0,0,2.87,1.52,3.09,3.09,0,0,0,2.77-1.41,7.51,7.51,0,0,0,1-4.13,7.29,7.29,0,0,0-1-4.12,3,3,0,0,0-2.82-1.52Z"/><path class="cls-4" d="M287.59,155.77h-1.84V134.51h1.84Z"/><path class="cls-4" d="M300.81,155.77H299V153.5h0a3.73,3.73,0,0,1-3.6,2.6c-2.77,0-4.15-2.06-4.15-6.07v-8.57H293v8.24c0,3,.93,4.56,2.77,4.56a2.65,2.65,0,0,0,2.22-1.2,5.59,5.59,0,0,0,.92-3.25v-8.24h1.86Z"/><path class="cls-4" d="M310,155.67a2.91,2.91,0,0,1-1.76.43q-3,0-3.05-4.23v-8.46h-2v-1.95h2V138l1.85-.76v4.23h3v1.95h-3v8.13a4.05,4.05,0,0,0,.37,2.07,1.45,1.45,0,0,0,1.29.65,1.68,1.68,0,0,0,1.21-.44v1.85Z"/><path class="cls-4" d="M313.36,137.77a.86.86,0,0,1-.85-.44,1.8,1.8,0,0,1,0-2.16,1.09,1.09,0,0,1,.85-.44.86.86,0,0,1,.85.44,2.24,2.24,0,0,1,.36,1.08,1.51,1.51,0,0,1-.36,1.08A.86.86,0,0,1,313.36,137.77Zm.93,18h-1.85V141.35h1.82Z"/><path class="cls-4" d="M322.88,156.1a4.91,4.91,0,0,1-4.16-2.06,8.67,8.67,0,0,1-1.57-5.32,9.21,9.21,0,0,1,1.57-5.64,5.13,5.13,0,0,1,4.34-2.08,4.84,4.84,0,0,1,4.07,2,8.86,8.86,0,0,1,1.48,5.53,9.27,9.27,0,0,1-1.58,5.53A4.78,4.78,0,0,1,322.88,156.1Zm.18-13a3.43,3.43,0,0,0-2.88,1.5,6.87,6.87,0,0,0-1,4.12,7.13,7.13,0,0,0,1,4,3.46,3.46,0,0,0,2.87,1.52,3.06,3.06,0,0,0,2.76-1.41,7.49,7.49,0,0,0,1-4.13,7.27,7.27,0,0,0-1-4.12,2.93,2.93,0,0,0-2.75-1.5Z"/><path class="cls-4" d="M341.35,155.77H339.5v-8.24c0-3-.92-4.55-2.67-4.55a2.77,2.77,0,0,0-2.31,1.3,5.24,5.24,0,0,0-.93,3.25v8.24h-1.84V141.35h1.84v2.38h0a4.11,4.11,0,0,1,3.79-2.71,3.48,3.48,0,0,1,2.95,1.52,8.19,8.19,0,0,1,1,4.46v8.78Z"/><path class="cls-4" d="M344.12,155.23v-2.49a4.71,4.71,0,0,0,3.33,1.41c1.69,0,2.49-.65,2.49-2.06a2.41,2.41,0,0,0-.19-1c-.17-.22-.36-.54-.55-.76a3.75,3.75,0,0,0-.84-.54,9.94,9.94,0,0,0-1-.54c-.56-.22-.92-.55-1.39-.76a4.36,4.36,0,0,1-1-.87,2.22,2.22,0,0,1-.55-1.09,6.06,6.06,0,0,1-.19-1.41,3.5,3.5,0,0,1,.36-1.73,3.31,3.31,0,0,1,1-1.3,4.3,4.3,0,0,1,1.39-.76,7.46,7.46,0,0,1,1.69-.22,5.35,5.35,0,0,1,2.69.65V144a4.77,4.77,0,0,0-3-1,2.61,2.61,0,0,0-.92.1,1.76,1.76,0,0,0-.74.44,2.73,2.73,0,0,0-.46.65,2.34,2.34,0,0,0-.19.87,3.77,3.77,0,0,0,.19,1,2.73,2.73,0,0,0,.46.65,4.89,4.89,0,0,0,.74.55,7.13,7.13,0,0,1,1,.54,8.88,8.88,0,0,1,1.38.76,3.92,3.92,0,0,1,1,.86,2.51,2.51,0,0,1,.65,1.09,3.7,3.7,0,0,1,.28,1.52,3.85,3.85,0,0,1-.37,1.84,3.38,3.38,0,0,1-1,1.3,4.06,4.06,0,0,1-1.49.76,4.54,4.54,0,0,1-1.75.22A5.16,5.16,0,0,1,344.12,155.23Z"/></g></g></g></g></svg>